# File created by Blade
# Date/Time:  Tue Jan 27 18:09:10 2015
# Frame Rate: 120.000 fps
#------------------------------------------------------
:FULLY-SPECIFIED
:DEGREES
1925
root -1.482432 31.853862 -6.675921 5.943547 12.027957 3.718343
Spine -7.479838 -3.833475 -3.809340
Head 2.779688 -36.612394 -2.745677
LeftShoulder -10.661075 15.877518 3.953509
LeftArm 27.852616 43.018867 -65.519765
LeftForeArm -1.988224 -0.000000 15.328919
LeftHand -10.548702 -0.000000 -5.265078
LeftHandThumb1 -26.253704 0.000000 33.147579
RightShoulder 0.806392 20.964051 -28.423286
RightArm 39.775299 53.303839 73.899664
RightForeArm 41.662343 -0.000000 99.880812
RightHand -4.121743 -0.000000 6.317221
RightHandThumb1 -24.326973 -0.000000 -32.862282
LeftUpLeg -2.500216 -3.972859 -0.886419
LeftLeg 1.502081 -0.000000 -0.000000
LeftFoot -16.707854 14.936473 -24.482314
LeftToeBase 8.630645 -0.000000 -0.000000
RightUpLeg 1.942989 -7.479833 -3.627189
RightLeg -3.481941 -0.000000 0.000000
RightFoot -15.811499 -15.436161 10.107672
RightToeBase 5.209801 -0.000000 -0.000000
1926
root -1.481610 31.853430 -6.675331 5.927849 12.035537 3.720132
Spine -7.494006 -3.856260 -3.812912
Head 2.736781 -36.613393 -2.650998
LeftShoulder -10.659872 15.901738 3.973753
LeftArm 27.847064 43.023718 -65.519895
LeftForeArm -1.992759 -0.000000 15.324340
LeftHand -10.551460 -0.000000 -5.259053
LeftHandThumb1 -26.253704 0.000000 33.147579
RightShoulder 0.741356 20.834284 -28.466475
RightArm 38.246391 52.172503 71.373752
RightForeArm 41.559292 0.000000 99.462717
RightHand -4.521208 0.000000 6.315613
RightHandThumb1 -24.326973 -0.000000 -32.862282
LeftUpLeg -2.483331 -3.965230 -0.889855
LeftLeg 1.501903 -0.000000 -0.000000
LeftFoot -16.703064 14.927367 -24.468388
LeftToeBase 8.670018 -0.000000 -0.000000
RightUpLeg 1.959020 -7.466206 -3.632889
RightLeg -3.473541 -0.000000 0.000000
RightFoot -15.819711 -15.450421 10.117928
RightToeBase 5.175205 -0.000000 -0.000000
1927
root -1.480530 31.853300 -6.675934 5.917587 12.047526 3.720769
Spine -7.520361 -3.894615 -3.803475
Head 2.736008 -36.606474 -2.615877
LeftShoulder -10.661812 15.903171 3.983235
LeftArm 27.807561 43.013770 -65.551057
LeftForeArm -1.996935 -0.000000 15.295232
LeftHand -10.562564 0.000000 -5.274659
LeftHandThumb1 -26.253704 0.000000 33.147579
RightShoulder 0.702360 20.697050 -28.516293
RightArm 36.714390 50.936357 68.781294
RightForeArm 41.460791 -0.000000 99.030155
RightHand -4.714754 -0.000000 6.347316
RightHandThumb1 -24.326973 -0.000000 -32.862282
LeftUpLeg -2.479803 -3.968356 -0.892143
LeftLeg 1.514649 -0.000000 -0.000000
LeftFoot -16.717169 14.903847 -24.488365
LeftToeBase 8.681153 -0.000000 -0.000000
RightUpLeg 1.968324 -7.464494 -3.636761
RightLeg -3.468637 -0.000000 0.000000
RightFoot -15.825170 -15.446580 10.131203
RightToeBase 5.182530 -0.000000 -0.000000
1928
root -1.478688 31.853025 -6.675336 5.906092 12.056741 3.727081
Spine -7.546679 -3.942345 -3.798093
Head 2.730970 -36.575414 -2.578359
LeftShoulder -10.676726 15.914363 3.986757
LeftArm 27.766099 43.000029 -65.580611
LeftForeArm -2.003485 -0.000000 15.283429
LeftHand -10.561282 -0.000000 -5.299112
LeftHandThumb1 -26.253704 0.000000 33.147579
RightShoulder 0.640629 20.422125 -28.564008
RightArm 35.503900 49.641743 66.385780
RightForeArm 41.385731 -0.000000 98.548547
RightHand -4.929092 -0.000000 6.494094
RightHandThumb1 -24.326973 -0.000000 -32.862282
LeftUpLeg -2.462563 -3.971204 -0.901352
LeftLeg 1.506449 -0.000000 -0.000000
LeftFoot -16.713611 14.898208 -24.489936
LeftToeBase 8.650371 -0.000000 -0.000000
RightUpLeg 1.983181 -7.452903 -3.646830
RightLeg -3.463608 -0.000000 0.000000
RightFoot -15.846694 -15.461283 10.144378
RightToeBase 5.195154 -0.000000 -0.000000
1929
root -1.476854 31.852578 -6.675044 5.889241 12.066848 3.732919
Spine -7.571697 -3.974777 -3.799805
Head 2.738648 -36.574561 -2.529400
LeftShoulder -10.667737 15.957597 3.996905
LeftArm 27.772822 42.987658 -65.580034
LeftForeArm -2.003925 -0.000000 15.262539
LeftHand -10.552799 -0.000000 -5.282289
LeftHandThumb1 -26.253704 0.000000 33.147579
RightShoulder 0.575058 20.332596 -28.625213
RightArm 34.018606 48.163128 63.744416
RightForeArm 41.135489 -0.000000 98.064060
RightHand -5.157102 0.000000 6.460276
RightHandThumb1 -24.326973 -0.000000 -32.862282
LeftUpLeg -2.444920 -3.981335 -0.910214
LeftLeg 1.506851 -0.000000 -0.000000
LeftFoot -16.710954 14.902428 -24.467787
LeftToeBase 8.644153 -0.000000 -0.000000
RightUpLeg 2.002324 -7.444853 -3.657949
RightLeg -3.458202 -0.000000 0.000000
RightFoot -15.848696 -15.483477 10.132071
RightToeBase 5.172526 -0.000000 -0.000000
1930
root -1.475260 31.852263 -6.674565 5.870083 12.077982 3.738541
Spine -7.593492 -4.026388 -3.799825
Head 2.750993 -36.564768 -2.488718
LeftShoulder -10.674815 15.961264 4.005963
LeftArm 27.719143 42.964565 -65.630702
LeftForeArm -1.968934 0.000000 15.235526
LeftHand -10.551879 -0.000000 -5.299544
LeftHandThumb1 -26.253704 0.000000 33.147579
RightShoulder 0.544821 20.141693 -28.655588
RightArm 32.712364 46.639246 61.127182
RightForeArm 40.788184 -0.000000 97.580323
RightHand -5.311261 -0.000000 6.588280
RightHandThumb1 -24.326973 -0.000000 -32.862282
LeftUpLeg -2.423735 -3.998242 -0.917336
LeftLeg 1.509732 -0.000000 -0.000000
LeftFoot -16.724192 14.883102 -24.512941
LeftToeBase 8.644481 -0.000000 -0.000000
RightUpLeg 2.027177 -7.428471 -3.667805
RightLeg -3.459692 -0.000000 0.000000
RightFoot -15.863334 -15.506094 10.153170
RightToeBase 5.156650 -0.000000 -0.000000
